<?xml version="1.0" encoding="utf-8"?>
<svg width="40.300mm" height="128.500mm" version="1.1" viewBox="0 0 40.300 128.500" xmlns="http://www.w3.org/2000/svg">
  <desc>Created with the Front Panel Designer by the export of the file 'panelOneSide.fpd'.</desc>
  <g transform="scale(1,-1) translate( -0.000, -128.500)" fill-rule="evenodd" style="stroke-linecap:round; stroke-linejoin:round; stroke-opacity:1.0; stroke-opacity:1.0;">
    <g>
      <path d="M 11.45 119.847 L 11.45 121.617 L 11.239 121.617 L 11.239 117.782 L 11.45 117.782 L 11.45 119.847 L 13.767 119.847 L 13.767 121.617 L 13.978 121.617 L 13.978 117.782 L 13.767 117.782 L 13.767 119.847 L 13.557 120.058 L 13.557 121.743 L 14.189 121.743 L 14.189 117.698 L 13.557 117.698 L 13.557 119.636 L 11.661 119.636 L 11.661 117.698 L 11.029 117.698 L 11.029 121.743 L 11.661 121.743 L 11.661 120.058 L 13.557 120.058" fill="none" vector-effect="non-scaling-stroke" stroke="#e0e0e0" stroke-width="0.400mm" stroke-opacity="1.000000"/>
      <path d="M 15.622 119.889 C 15.695 120.132 15.884 120.322 16.127 120.395 C 16.518 120.51 16.937 120.48 17.307 120.31 C 17.506 120.219 17.636 120.023 17.644 119.805 L 17.644 117.909 L 17.729 117.74 L 17.518 118.204 L 17.518 117.782 L 17.349 118.077 L 17.518 118.456 C 17.301 118.178 16.983 117.997 16.633 117.951 C 16.378 117.891 16.11 117.92 15.875 118.035 C 15.565 118.23 15.565 118.683 15.875 118.878 C 16.461 119.001 17.009 119.261 17.476 119.636 L 17.265 119.341 L 17.265 118.709 C 17.263 118.397 17.058 118.124 16.759 118.035 C 16.519 117.964 16.26 117.995 16.043 118.119 C 15.848 118.229 15.79 118.483 15.917 118.667 C 16.017 118.813 16.167 118.918 16.338 118.962 C 16.536 119.012 16.733 119.068 16.928 119.131 C 17.056 119.172 17.172 119.244 17.265 119.341 L 17.476 119.763 L 17.476 118.751 C 17.303 117.982 16.461 117.571 15.748 117.909 C 15.489 118.044 15.378 118.357 15.495 118.625 C 15.58 118.827 15.75 118.981 15.959 119.046 C 16.376 119.14 16.784 119.267 17.181 119.426 C 17.498 119.58 17.53 120.019 17.238 120.217 C 17.207 120.238 17.174 120.255 17.139 120.268 C 16.851 120.356 16.542 120.356 16.254 120.268 C 16.055 120.229 15.893 120.083 15.833 119.889 L 15.622 119.889 L 15.453 119.763 L 16.001 119.763 C 16.002 119.906 16.084 120.037 16.212 120.1 C 16.478 120.228 16.788 120.228 17.054 120.1 C 17.302 119.979 17.326 119.634 17.097 119.48 C 17.059 119.454 17.015 119.436 16.97 119.426 L 16.127 119.257 C 15.887 119.21 15.667 119.093 15.495 118.92 C 15.107 118.53 15.267 117.868 15.79 117.698 C 16.119 117.592 16.473 117.592 16.802 117.698 C 16.981 117.758 17.121 117.898 17.181 118.077 C 17.213 117.941 17.27 117.813 17.349 117.698 L 17.981 117.698 C 17.906 117.72 17.855 117.789 17.855 117.867 L 17.855 119.678 C 17.861 119.977 17.699 120.255 17.434 120.395 C 16.934 120.664 16.333 120.664 15.833 120.395 C 15.6 120.27 15.454 120.028 15.453 119.763" fill="none" vector-effect="non-scaling-stroke" stroke="#e0e0e0" stroke-width="0.400mm" stroke-opacity="1.000000"/>
      <path d="M 19.457 120.436 L 19.457 117.781 L 19.246 117.781 L 19.246 120.436 L 19.457 120.436 L 19.457 119.298 L 19.71 119.888 C 19.856 120.222 20.187 120.438 20.552 120.436 L 20.679 120.604 L 20.679 120.225 C 20.537 120.244 20.393 120.23 20.258 120.183 C 19.879 120.055 19.624 119.698 19.626 119.298 L 19.626 117.697 L 19.078 117.697 L 19.078 120.562 L 19.626 120.562 L 19.626 119.888 C 19.692 120.302 20.049 120.606 20.468 120.604 L 20.679 120.604" fill="none" vector-effect="non-scaling-stroke" stroke="#e0e0e0" stroke-width="0.400mm" stroke-opacity="1.000000"/>
      <path d="M 24.386 121.615 L 24.175 121.615 L 24.175 117.78 L 24.386 117.78 L 24.386 121.615 L 24.555 121.741 L 24.555 117.696 L 24.007 117.696 L 24.007 119.803 C 23.733 120.614 22.684 120.824 22.119 120.181 C 22.021 120.071 21.947 119.942 21.9 119.803 C 21.742 119.338 21.742 118.835 21.9 118.37 C 22.174 117.559 23.223 117.349 23.788 117.992 C 23.886 118.102 23.96 118.231 24.007 118.37 L 24.007 119.803 C 23.892 119.978 23.75 120.135 23.586 120.266 C 23.057 120.602 22.353 120.381 22.111 119.803 C 21.923 119.344 21.923 118.829 22.111 118.37 C 22.354 117.789 23.073 117.584 23.586 117.949 C 23.335 117.83 23.047 117.815 22.785 117.907 C 22.496 118.03 22.279 118.278 22.195 118.581 C 22.105 118.912 22.105 119.261 22.195 119.592 C 22.279 119.895 22.496 120.143 22.785 120.266 C 23.192 120.462 23.679 120.268 23.838 119.845 C 23.581 120.364 22.859 120.41 22.538 119.928 C 22.52 119.902 22.504 119.874 22.49 119.845 C 22.259 119.366 22.259 118.807 22.49 118.328 C 22.747 117.809 23.469 117.763 23.79 118.245 C 23.808 118.271 23.824 118.299 23.838 118.328 C 24.069 118.807 24.069 119.366 23.838 119.845 L 24.007 119.803 L 24.007 121.741 L 24.555 121.741" fill="none" vector-effect="non-scaling-stroke" stroke="#e0e0e0" stroke-width="0.400mm" stroke-opacity="1.000000"/>
      <path d="M 28.768 120.772 L 28.557 121.109 C 27.963 121.718 26.967 121.658 26.45 120.983 C 25.945 120.216 25.945 119.221 26.45 118.454 C 27.113 117.587 28.466 117.763 28.885 118.771 C 28.888 118.778 28.891 118.785 28.894 118.792 L 29.105 117.822 L 29.105 119.466 L 27.883 119.466 L 27.883 119.297 L 29.021 119.297 L 29.021 119.171 C 28.981 118.924 28.91 118.683 28.81 118.454 C 28.209 117.552 26.883 117.552 26.282 118.454 C 25.724 119.205 25.724 120.232 26.282 120.983 C 26.876 121.898 28.216 121.898 28.81 120.983 C 28.873 120.903 28.929 120.819 28.978 120.73 L 29.273 120.603 L 28.684 120.603 C 28.367 121.479 27.221 121.684 26.621 120.972 C 26.529 120.862 26.457 120.738 26.408 120.603 C 26.204 120.031 26.204 119.406 26.408 118.834 C 26.581 118.355 27.036 118.035 27.546 118.033 C 28.206 118.029 28.766 118.517 28.852 119.171 L 27.799 119.171 L 27.799 119.592 L 29.273 119.592 L 29.273 117.696 L 28.978 117.696 L 28.81 118.286 C 28.529 117.863 28.054 117.61 27.546 117.612 C 26.982 117.612 26.451 117.877 26.113 118.328 C 25.5 119.154 25.5 120.283 26.113 121.109 C 26.825 122.072 28.266 122.072 28.978 121.109 C 29.097 120.953 29.196 120.783 29.273 120.603" fill="none" vector-effect="non-scaling-stroke" stroke="#e0e0e0" stroke-width="0.400mm" stroke-opacity="1.000000"/>
    </g>
    <path d="M 8.277 123.9 C 9.159 123.831 10.003 124.518 10.003 125.498 C 10.003 126.07 9.698 126.598 9.203 126.884 C 8.915 127.05 8.607 127.115 8.311 127.098 C 8.291 127.099 8.271 127.1 8.25 127.1 L 6.567 127.1 C 5.706 127.136 4.899 126.458 4.899 125.499 C 4.899 124.927 5.204 124.399 5.699 124.113 C 5.99 123.945 6.301 123.88 6.6 123.9 C 6.881 123.9 8.269 123.9 8.277 123.9 Z" fill="#ffffff" fill-opacity="1.000000" vector-effect="non-scaling-stroke" stroke="#000000" stroke-width="0.100mm" stroke-opacity="1.000000"/>
    <path d=" M16.650 26.356 A3.500,3.500 0 1,0 23.650,26.356 A3.500,3.500 0 1,0 16.650,26.356 " fill="#ffffff" fill-opacity="1.000000" vector-effect="non-scaling-stroke" stroke="#000000" stroke-width="0.100mm" stroke-opacity="1.000000"/>
    <path d="M 5.699 1.614 C 5.985 1.449 6.29 1.384 6.584 1.4 L 8.25 1.4 C 8.267 1.4 8.284 1.401 8.301 1.402 C 9.173 1.347 10.001 2.03 10.001 3.001 C 10.001 3.573 9.696 4.101 9.201 4.387 C 8.906 4.557 8.589 4.622 8.287 4.599 C 8.275 4.6 8.262 4.6 8.25 4.6 L 6.588 4.6 C 5.719 4.648 4.899 3.966 4.899 3 C 4.899 2.428 5.204 1.9 5.699 1.614 Z" fill="#ffffff" fill-opacity="1.000000" vector-effect="non-scaling-stroke" stroke="#000000" stroke-width="0.100mm" stroke-opacity="1.000000"/>
    <path d=" M4.275 55.925 A0.500,0.500 0 0,1 4.775,55.425 L35.525 55.425 A0.500,0.500 0 0,1 36.025,55.925 L36.025 72.575 A0.500,0.500 0 0,1 35.525,73.075 L4.775 73.075 A0.500,0.500 0 0,1 4.275,72.575 L4.275 55.925 " fill="#ffffff" fill-opacity="1.000000" vector-effect="non-scaling-stroke" stroke="#000000" stroke-width="0.100mm" stroke-opacity="1.000000"/>
    <path d=" M40.300 128.500 L40.300 0.000 L0.000 0.000 L0.000 128.500 L40.300 128.500 " fill="none" vector-effect="non-scaling-stroke" stroke="#000000" stroke-width="0.100mm" stroke-opacity="1.000000" style=""/>
  </g>
</svg>