<?xml version="1.0" encoding="utf-8"?>
<svg width="40.300mm" height="128.500mm" version="1.1" viewBox="0 0 40.300 128.500" xmlns="http://www.w3.org/2000/svg">
  <desc>Created with the Front Panel Designer by the export of the file 'panelV11.fpd'.</desc>
  <path d="M 4.899 125.5 C 4.899 124.534 5.719 123.852 6.588 123.9 L 8.25 123.9 C 8.262 123.9 8.275 123.9 8.287 123.901 C 8.589 123.878 8.906 123.943 9.201 124.113 C 9.696 124.399 10.001 124.927 10.001 125.499 C 10.001 126.47 9.173 127.153 8.301 127.098 C 8.284 127.099 8.267 127.1 8.25 127.1 L 6.584 127.1 C 6.29 127.116 5.985 127.051 5.699 126.886 C 5.204 126.6 4.899 126.072 4.899 125.5 Z" fill="#ffffff" fill-opacity="1.000000" vector-effect="non-scaling-stroke" stroke="#000000" stroke-width="0.100mm" stroke-opacity="1.000000" fill-rule="evenodd" style="stroke-linecap: round; stroke-linejoin: round; stroke-opacity: 1;"/>
  <path d="M 8.25 1.4 C 8.271 1.4 8.291 1.401 8.311 1.402 C 8.607 1.385 8.915 1.45 9.203 1.616 C 9.698 1.902 10.003 2.43 10.003 3.002 C 10.003 3.982 9.159 4.669 8.277 4.6 C 8.268 4.6 8.259 4.6 8.25 4.6 L 6.6 4.6 C 6.301 4.62 5.99 4.555 5.699 4.387 C 5.204 4.101 4.899 3.573 4.899 3.001 C 4.899 2.042 5.706 1.364 6.567 1.4 Z" fill="#ffffff" fill-opacity="1.000000" vector-effect="non-scaling-stroke" stroke="#000000" stroke-width="0.100mm" stroke-opacity="1.000000" fill-rule="evenodd" style="stroke-linecap: round; stroke-linejoin: round; stroke-opacity: 1;"/>
  <path d="M 16.65 108.75 C 16.65 106.056 19.567 104.372 21.9 105.719 C 22.983 106.344 23.65 107.5 23.65 108.75 C 23.65 111.444 20.733 113.128 18.4 111.781 C 17.317 111.156 16.65 110 16.65 108.75" fill="#ffffff" fill-opacity="1.000000" vector-effect="non-scaling-stroke" stroke="#000000" stroke-width="0.100mm" stroke-opacity="1.000000" fill-rule="evenodd" style="stroke-linecap: round; stroke-linejoin: round; stroke-opacity: 1;"/>
  <path d="M 28.15 108.75 C 28.15 106.056 31.067 104.372 33.4 105.719 C 34.483 106.344 35.15 107.5 35.15 108.75 C 35.15 111.444 32.233 113.128 29.9 111.781 C 28.817 111.156 28.15 110 28.15 108.75" fill="#ffffff" fill-opacity="1.000000" vector-effect="non-scaling-stroke" stroke="#000000" stroke-width="0.100mm" stroke-opacity="1.000000" fill-rule="evenodd" style="stroke-linecap: round; stroke-linejoin: round; stroke-opacity: 1;"/>
  <path d="M 5.15 108.75 C 5.15 106.056 8.067 104.372 10.4 105.719 C 11.483 106.344 12.15 107.5 12.15 108.75 C 12.15 111.444 9.233 113.128 6.9 111.781 C 5.817 111.156 5.15 110 5.15 108.75" fill="#ffffff" fill-opacity="1.000000" vector-effect="non-scaling-stroke" stroke="#000000" stroke-width="0.100mm" stroke-opacity="1.000000" fill-rule="evenodd" style="stroke-linecap: round; stroke-linejoin: round; stroke-opacity: 1;"/>
  <path d="M 16.65 94.75 C 16.65 92.056 19.567 90.372 21.9 91.719 C 22.983 92.344 23.65 93.5 23.65 94.75 C 23.65 97.444 20.733 99.128 18.4 97.781 C 17.317 97.156 16.65 96 16.65 94.75" fill="#ffffff" fill-opacity="1.000000" vector-effect="non-scaling-stroke" stroke="#000000" stroke-width="0.100mm" stroke-opacity="1.000000" fill-rule="evenodd" style="stroke-linecap: round; stroke-linejoin: round; stroke-opacity: 1;"/>
  <path d="M 4.275 76.575 C 4.275 76.851 4.499 77.075 4.775 77.075 L 35.525 77.075 C 35.801 77.075 36.025 76.851 36.025 76.575 L 36.025 59.925 C 36.025 59.649 35.801 59.425 35.525 59.425 L 4.775 59.425 C 4.499 59.425 4.275 59.649 4.275 59.925 L 4.275 76.575" fill="#ffffff" fill-opacity="1.000000" vector-effect="non-scaling-stroke" stroke="#000000" stroke-width="0.100mm" stroke-opacity="1.000000" fill-rule="evenodd" style="stroke-linecap: round; stroke-linejoin: round; stroke-opacity: 1;"/>
  <path d="M 7.15 93.75 C 7.15 92.595 8.4 91.874 9.4 92.451 C 9.864 92.719 10.15 93.214 10.15 93.75 C 10.15 94.905 8.9 95.626 7.9 95.049 C 7.436 94.781 7.15 94.286 7.15 93.75" fill="#ffffff" fill-opacity="1.000000" vector-effect="non-scaling-stroke" stroke="#000000" stroke-width="0.100mm" stroke-opacity="1.000000" fill-rule="evenodd" style="stroke-linecap: round; stroke-linejoin: round; stroke-opacity: 1;"/>
  <path d="M 5.4 56.5 C 5.4 55.538 6.442 54.936 7.275 55.417 C 7.662 55.641 7.9 56.053 7.9 56.5 C 7.9 57.462 6.858 58.064 6.025 57.583 C 5.638 57.359 5.4 56.947 5.4 56.5" fill="#ffffff" fill-opacity="1.000000" vector-effect="non-scaling-stroke" stroke="#000000" stroke-width="0.100mm" stroke-opacity="1.000000" fill-rule="evenodd" style="stroke-linecap: round; stroke-linejoin: round; stroke-opacity: 1;"/>
  <path d="M 32.4 56.5 C 32.4 55.538 33.442 54.936 34.275 55.417 C 34.662 55.641 34.9 56.053 34.9 56.5 C 34.9 57.462 33.858 58.064 33.025 57.583 C 32.638 57.359 32.4 56.947 32.4 56.5" fill="#ffffff" fill-opacity="1.000000" vector-effect="non-scaling-stroke" stroke="#000000" stroke-width="0.100mm" stroke-opacity="1.000000" fill-rule="evenodd" style="stroke-linecap: round; stroke-linejoin: round; stroke-opacity: 1;"/>
  <path d="M 40.3 0 L 40.3 128.5 L 0 128.5 L 0 0 L 40.3 0" fill="none" vector-effect="non-scaling-stroke" stroke="#000000" stroke-width="0.100mm" stroke-opacity="1.000000" fill-rule="evenodd" style="stroke-linecap: round; stroke-linejoin: round; stroke-opacity: 1;"/>
  <path d="M 3.291 13.111 L 3.291 7.031 C 3.291 6.904 3.334 6.794 3.421 6.701 C 3.514 6.614 3.628 6.571 3.761 6.571 L 4.671 6.571 C 4.798 6.571 4.904 6.614 4.991 6.701 C 5.084 6.794 5.131 6.904 5.131 7.031 L 5.131 9.231 L 8.491 9.231 L 8.491 7.031 C 8.491 6.904 8.538 6.794 8.631 6.701 C 8.718 6.614 8.824 6.571 8.951 6.571 L 9.861 6.571 C 9.994 6.571 10.104 6.614 10.191 6.701 C 10.284 6.794 10.331 6.904 10.331 7.031 L 10.331 13.111 C 10.331 13.238 10.284 13.348 10.191 13.441 C 10.098 13.528 9.988 13.571 9.861 13.571 L 8.951 13.571 C 8.824 13.571 8.718 13.528 8.631 13.441 C 8.538 13.354 8.491 13.248 8.491 13.121 L 8.491 10.611 L 5.131 10.611 L 5.131 13.121 C 5.131 13.248 5.084 13.354 4.991 13.441 C 4.904 13.528 4.798 13.571 4.671 13.571 L 3.761 13.571 C 3.634 13.571 3.524 13.528 3.431 13.441 C 3.338 13.348 3.291 13.238 3.291 13.111 Z M 11.973 13.221 C 11.546 12.921 11.333 12.498 11.333 11.951 C 11.333 11.404 11.546 10.984 11.973 10.691 C 12.406 10.398 12.963 10.251 13.643 10.251 L 15.263 10.251 C 15.263 9.871 15.183 9.604 15.023 9.451 C 14.863 9.304 14.583 9.231 14.183 9.231 C 13.783 9.231 13.503 9.328 13.343 9.521 C 13.183 9.721 12.986 9.821 12.753 9.821 L 12.023 9.821 C 11.936 9.821 11.863 9.791 11.803 9.731 C 11.75 9.678 11.723 9.608 11.723 9.521 C 11.723 8.588 12.61 8.121 14.383 8.121 C 15.156 8.121 15.776 8.294 16.243 8.641 C 16.716 8.988 16.953 9.524 16.953 10.251 L 16.953 13.271 C 16.953 13.358 16.923 13.431 16.863 13.491 C 16.81 13.544 16.74 13.571 16.653 13.571 L 15.713 13.571 C 15.626 13.571 15.553 13.541 15.493 13.481 C 15.44 13.428 15.413 13.358 15.413 13.271 L 15.413 13.121 C 14.9 13.488 14.306 13.671 13.633 13.671 C 12.96 13.671 12.406 13.521 11.973 13.221 Z M 13.763 11.361 C 13.536 11.361 13.356 11.414 13.223 11.521 C 13.09 11.634 13.023 11.778 13.023 11.951 C 13.023 12.131 13.093 12.278 13.233 12.391 C 13.366 12.504 13.56 12.561 13.813 12.561 C 14.313 12.561 14.796 12.414 15.263 12.121 L 15.263 11.361 L 13.763 11.361 Z M 22.011 9.461 L 21.851 9.461 L 21.101 9.431 C 20.661 9.431 20.241 9.671 19.841 10.151 L 19.841 13.271 C 19.841 13.358 19.811 13.431 19.751 13.491 C 19.698 13.544 19.628 13.571 19.541 13.571 L 18.451 13.571 C 18.364 13.571 18.291 13.544 18.231 13.491 C 18.178 13.431 18.151 13.358 18.151 13.271 L 18.151 8.521 C 18.151 8.434 18.181 8.361 18.241 8.301 C 18.294 8.248 18.364 8.221 18.451 8.221 L 19.541 8.221 C 19.628 8.221 19.701 8.248 19.761 8.301 C 19.814 8.361 19.841 8.434 19.841 8.521 L 19.841 8.831 C 20.174 8.591 20.494 8.411 20.801 8.291 C 21.108 8.178 21.511 8.121 22.011 8.121 C 22.098 8.121 22.171 8.151 22.231 8.211 C 22.284 8.264 22.311 8.334 22.311 8.421 L 22.311 9.161 C 22.311 9.248 22.284 9.321 22.231 9.381 C 22.171 9.434 22.098 9.461 22.011 9.461 Z M 25.099 13.671 C 24.419 13.671 23.849 13.431 23.389 12.951 C 22.936 12.471 22.709 11.784 22.709 10.891 C 22.709 9.998 22.946 9.314 23.419 8.841 C 23.892 8.361 24.529 8.121 25.329 8.121 C 25.742 8.121 26.212 8.204 26.739 8.371 L 26.739 6.871 C 26.739 6.784 26.769 6.711 26.829 6.651 C 26.882 6.598 26.952 6.571 27.039 6.571 L 28.129 6.571 C 28.216 6.571 28.289 6.598 28.349 6.651 C 28.402 6.711 28.429 6.784 28.429 6.871 L 28.429 13.271 C 28.429 13.358 28.402 13.428 28.349 13.481 C 28.289 13.541 28.216 13.571 28.129 13.571 L 27.189 13.571 C 27.102 13.571 27.032 13.541 26.979 13.481 C 26.919 13.428 26.889 13.358 26.889 13.271 L 26.889 13.121 C 26.376 13.488 25.779 13.671 25.099 13.671 Z M 25.679 9.301 C 25.232 9.301 24.916 9.428 24.729 9.681 C 24.542 9.934 24.449 10.338 24.449 10.891 C 24.449 11.451 24.536 11.858 24.709 12.111 C 24.889 12.364 25.156 12.491 25.509 12.491 C 25.862 12.491 26.272 12.344 26.739 12.051 L 26.739 9.501 C 26.319 9.368 25.966 9.301 25.679 9.301 Z M 32.68 13.611 C 31.6 13.611 30.77 13.321 30.19 12.741 C 29.616 12.154 29.33 11.261 29.33 10.061 C 29.33 8.861 29.63 7.974 30.23 7.401 C 30.836 6.821 31.743 6.531 32.95 6.531 L 34.04 6.531 C 34.76 6.531 35.41 6.701 35.99 7.041 C 36.563 7.388 36.85 7.818 36.85 8.331 C 36.85 8.524 36.793 8.661 36.68 8.741 C 36.566 8.828 36.456 8.871 36.35 8.871 L 35.77 8.871 C 35.49 8.871 35.266 8.711 35.1 8.391 C 34.933 8.071 34.523 7.911 33.87 7.911 L 33 7.911 C 32.286 7.911 31.803 8.064 31.55 8.371 C 31.296 8.678 31.17 9.241 31.17 10.061 C 31.17 10.881 31.283 11.448 31.51 11.761 C 31.736 12.074 32.143 12.231 32.73 12.231 L 33.73 12.231 C 34.256 12.231 34.633 12.131 34.86 11.931 C 35.08 11.731 35.193 11.444 35.2 11.071 L 34.1 11.071 C 33.973 11.071 33.863 11.028 33.77 10.941 C 33.683 10.848 33.64 10.738 33.64 10.611 L 33.64 10.231 C 33.64 10.104 33.683 9.998 33.77 9.911 C 33.863 9.818 33.973 9.771 34.1 9.771 L 36.55 9.771 C 36.676 9.771 36.783 9.818 36.87 9.911 C 36.963 9.998 37.01 10.104 37.01 10.231 L 37.01 10.771 C 37.01 11.684 36.736 12.384 36.19 12.871 C 35.643 13.364 34.84 13.611 33.78 13.611 L 32.68 13.611 Z" style="fill: rgb(51, 51, 51); white-space: pre;"/>
  <path d="M 16.042 86.1 L 16.042 85.91 C 16.042 85.857 16.059 85.813 16.092 85.78 C 16.125 85.747 16.169 85.73 16.222 85.73 L 18.702 85.73 C 18.755 85.73 18.802 85.747 18.842 85.78 C 18.875 85.813 18.892 85.857 18.892 85.91 L 18.892 86.1 C 18.892 86.153 18.875 86.197 18.842 86.23 C 18.802 86.263 18.755 86.28 18.702 86.28 L 17.832 86.28 L 17.832 88.35 C 17.832 88.403 17.815 88.447 17.782 88.48 C 17.742 88.513 17.699 88.53 17.652 88.53 L 17.282 88.53 C 17.229 88.53 17.185 88.513 17.152 88.48 C 17.119 88.447 17.102 88.403 17.102 88.35 L 17.102 86.28 L 16.222 86.28 C 16.169 86.28 16.125 86.263 16.092 86.23 C 16.059 86.197 16.042 86.153 16.042 86.1 Z M 20.631 86.89 L 20.571 86.89 L 20.271 86.87 C 20.098 86.87 19.931 86.967 19.771 87.16 L 19.771 88.41 C 19.771 88.443 19.758 88.473 19.731 88.5 C 19.711 88.52 19.684 88.53 19.651 88.53 L 19.211 88.53 C 19.178 88.53 19.148 88.52 19.121 88.5 C 19.101 88.473 19.091 88.443 19.091 88.41 L 19.091 86.51 C 19.091 86.477 19.101 86.447 19.121 86.42 C 19.148 86.4 19.178 86.39 19.211 86.39 L 19.651 86.39 C 19.684 86.39 19.711 86.4 19.731 86.42 C 19.758 86.447 19.771 86.477 19.771 86.51 L 19.771 86.63 C 19.904 86.537 20.031 86.467 20.151 86.42 C 20.271 86.373 20.431 86.35 20.631 86.35 C 20.671 86.35 20.701 86.36 20.721 86.38 C 20.741 86.407 20.751 86.437 20.751 86.47 L 20.751 86.77 C 20.751 86.803 20.741 86.83 20.721 86.85 C 20.701 86.877 20.671 86.89 20.631 86.89 Z M 20.956 85.98 L 20.956 85.91 C 20.956 85.843 20.976 85.79 21.016 85.75 C 21.056 85.71 21.109 85.69 21.176 85.69 L 21.426 85.69 C 21.493 85.69 21.546 85.71 21.586 85.75 C 21.626 85.79 21.646 85.843 21.646 85.91 L 21.646 85.98 C 21.646 86.047 21.626 86.103 21.586 86.15 C 21.546 86.19 21.493 86.21 21.426 86.21 L 21.176 86.21 C 21.109 86.21 21.056 86.19 21.016 86.15 C 20.976 86.103 20.956 86.047 20.956 85.98 Z M 20.966 88.41 L 20.966 86.56 C 20.966 86.52 20.976 86.49 20.996 86.47 C 21.023 86.45 21.053 86.44 21.086 86.44 L 21.516 86.44 C 21.556 86.44 21.586 86.45 21.606 86.47 C 21.626 86.497 21.636 86.527 21.636 86.56 L 21.636 88.41 C 21.636 88.443 21.626 88.473 21.606 88.5 C 21.586 88.52 21.556 88.53 21.516 88.53 L 21.086 88.53 C 21.046 88.53 21.016 88.52 20.996 88.5 C 20.976 88.473 20.966 88.443 20.966 88.41 Z M 22.998 88.37 C 22.698 88.37 22.458 88.28 22.278 88.1 C 22.098 87.92 22.008 87.673 22.008 87.36 C 22.008 87.04 22.111 86.793 22.318 86.62 C 22.524 86.44 22.821 86.35 23.208 86.35 C 23.394 86.35 23.591 86.37 23.798 86.41 C 23.998 86.457 24.151 86.51 24.258 86.57 L 24.258 88.38 C 24.258 88.667 24.161 88.88 23.968 89.02 C 23.774 89.16 23.504 89.23 23.158 89.23 C 22.818 89.23 22.554 89.187 22.368 89.1 C 22.181 89.013 22.088 88.87 22.088 88.67 C 22.088 88.637 22.098 88.607 22.118 88.58 C 22.138 88.56 22.168 88.55 22.208 88.55 L 22.498 88.55 C 22.591 88.55 22.664 88.583 22.718 88.65 C 22.791 88.743 22.918 88.79 23.098 88.79 C 23.284 88.79 23.411 88.76 23.478 88.7 C 23.544 88.64 23.578 88.533 23.578 88.38 L 23.578 88.29 C 23.371 88.343 23.178 88.37 22.998 88.37 Z M 23.168 86.82 C 22.861 86.82 22.708 87 22.708 87.36 C 22.708 87.713 22.858 87.89 23.158 87.89 C 23.284 87.89 23.424 87.87 23.578 87.83 L 23.578 86.87 C 23.464 86.837 23.328 86.82 23.168 86.82 Z" style="fill: rgb(51, 51, 51); white-space: pre;"/>
  <rect x="19.754" y="99.233" width="0.792" height="4.478" style="fill: rgb(216, 216, 216);"/>
  <rect x="8.145" y="100.921" width="24.01" height="0.792" style="fill: rgb(216, 216, 216);"/>
  <rect x="31.339" y="101.686" width="0.816" height="2.025" style="fill: rgb(216, 216, 216);"/>
  <rect x="8.141" y="101.675" width="0.816" height="2.025" style="fill: rgb(216, 216, 216);"/>
</svg>